<mxfile host="app.diagrams.net" modified="2024-03-12T20:00:55.292Z" agent="Mozilla/5.0 (Windows NT 10.0; Win64; x64) AppleWebKit/537.36 (KHTML, like Gecko) Chrome/122.0.0.0 Safari/537.36" etag="j9YBNCa__zTuRsSip8y3" version="24.0.1" type="device">
  <diagram name="Page-1" id="sGXCN3-ji6PJIai1RyU0">
    <mxGraphModel dx="1358" dy="549" grid="1" gridSize="10" guides="1" tooltips="1" connect="1" arrows="1" fold="1" page="1" pageScale="1" pageWidth="827" pageHeight="1169" math="0" shadow="0">
      <root>
        <mxCell id="0" />
        <mxCell id="1" parent="0" />
        <mxCell id="1wI0fY2_XgUoo5-ItiQv-7" value="abstract Inventory" style="swimlane;whiteSpace=wrap;html=1;startSize=23;" vertex="1" parent="1">
          <mxGeometry x="300" y="180" width="200" height="220" as="geometry" />
        </mxCell>
        <mxCell id="1wI0fY2_XgUoo5-ItiQv-9" value="- String tyOfFurniture&lt;div&gt;- String brand&amp;nbsp;&lt;/div&gt;&lt;div&gt;-&amp;nbsp; int numOfItemStock;&lt;div&gt;- double prices&amp;nbsp;&lt;span style=&quot;background-color: initial;&quot;&gt;(protected)&lt;/span&gt;&lt;/div&gt;&lt;/div&gt;" style="text;strokeColor=none;fillColor=none;align=left;verticalAlign=middle;spacingLeft=4;spacingRight=4;overflow=hidden;points=[[0,0.5],[1,0.5]];portConstraint=eastwest;rotatable=0;whiteSpace=wrap;html=1;" vertex="1" parent="1wI0fY2_XgUoo5-ItiQv-7">
          <mxGeometry y="30" width="180" height="60" as="geometry" />
        </mxCell>
        <mxCell id="1wI0fY2_XgUoo5-ItiQv-12" value="&lt;div&gt;+ constructor&lt;/div&gt;+ getter &amp;amp; setter&lt;div&gt;+ addNewStock()&lt;/div&gt;&lt;div&gt;+ updateExistStock()&lt;/div&gt;&lt;div&gt;+ abstract calculatePrices()&lt;br&gt;&lt;div&gt;&lt;div&gt;+ toString();&lt;/div&gt;&lt;/div&gt;&lt;/div&gt;" style="text;strokeColor=none;fillColor=none;align=left;verticalAlign=middle;spacingLeft=4;spacingRight=4;overflow=hidden;points=[[0,0.5],[1,0.5]];portConstraint=eastwest;rotatable=0;whiteSpace=wrap;html=1;" vertex="1" parent="1wI0fY2_XgUoo5-ItiQv-7">
          <mxGeometry y="120" width="190" height="90" as="geometry" />
        </mxCell>
        <mxCell id="1wI0fY2_XgUoo5-ItiQv-15" value="Mobile" style="swimlane;whiteSpace=wrap;html=1;startSize=23;" vertex="1" parent="1">
          <mxGeometry x="100" y="480" width="200" height="200" as="geometry" />
        </mxCell>
        <mxCell id="1wI0fY2_XgUoo5-ItiQv-21" value="- String tyOfMob&lt;div&gt;- String brand&lt;/div&gt;&lt;div&gt;- int stock&lt;/div&gt;&lt;div&gt;- double prices&lt;/div&gt;" style="text;strokeColor=none;fillColor=none;align=left;verticalAlign=middle;spacingLeft=4;spacingRight=4;overflow=hidden;points=[[0,0.5],[1,0.5]];portConstraint=eastwest;rotatable=0;whiteSpace=wrap;html=1;" vertex="1" parent="1wI0fY2_XgUoo5-ItiQv-15">
          <mxGeometry y="30" width="120" height="60" as="geometry" />
        </mxCell>
        <mxCell id="1wI0fY2_XgUoo5-ItiQv-26" value="+ constructor()&lt;div&gt;+ getter &amp;amp; setter&lt;/div&gt;&lt;div&gt;+ calculatePrices()&lt;/div&gt;&lt;div&gt;+ toString()&lt;/div&gt;&lt;div&gt;&lt;br&gt;&lt;/div&gt;" style="text;strokeColor=none;fillColor=none;align=left;verticalAlign=middle;spacingLeft=4;spacingRight=4;overflow=hidden;points=[[0,0.5],[1,0.5]];portConstraint=eastwest;rotatable=0;whiteSpace=wrap;html=1;" vertex="1" parent="1wI0fY2_XgUoo5-ItiQv-15">
          <mxGeometry y="110" width="190" height="70" as="geometry" />
        </mxCell>
        <mxCell id="1wI0fY2_XgUoo5-ItiQv-16" value="Laptop" style="swimlane;whiteSpace=wrap;html=1;startSize=23;" vertex="1" parent="1">
          <mxGeometry x="500" y="480" width="200" height="200" as="geometry" />
        </mxCell>
        <mxCell id="1wI0fY2_XgUoo5-ItiQv-22" value="- String tyOfLap&lt;div&gt;- String brand&lt;/div&gt;&lt;div&gt;- int stock&lt;br&gt;&lt;/div&gt;&lt;div&gt;- double prices&lt;br&gt;&lt;/div&gt;" style="text;strokeColor=none;fillColor=none;align=left;verticalAlign=middle;spacingLeft=4;spacingRight=4;overflow=hidden;points=[[0,0.5],[1,0.5]];portConstraint=eastwest;rotatable=0;whiteSpace=wrap;html=1;" vertex="1" parent="1wI0fY2_XgUoo5-ItiQv-16">
          <mxGeometry y="30" width="120" height="60" as="geometry" />
        </mxCell>
        <mxCell id="1wI0fY2_XgUoo5-ItiQv-27" value="+ constructor()&lt;div&gt;+ getter &amp;amp; setter&lt;/div&gt;&lt;div&gt;+ calculatePrices&lt;br&gt;&lt;/div&gt;&lt;div&gt;+ toString()&lt;/div&gt;&lt;div&gt;&lt;br&gt;&lt;/div&gt;" style="text;strokeColor=none;fillColor=none;align=left;verticalAlign=middle;spacingLeft=4;spacingRight=4;overflow=hidden;points=[[0,0.5],[1,0.5]];portConstraint=eastwest;rotatable=0;whiteSpace=wrap;html=1;" vertex="1" parent="1wI0fY2_XgUoo5-ItiQv-16">
          <mxGeometry y="110" width="190" height="80" as="geometry" />
        </mxCell>
        <mxCell id="1wI0fY2_XgUoo5-ItiQv-17" value="" style="endArrow=classic;html=1;rounded=0;entryX=0.5;entryY=1;entryDx=0;entryDy=0;exitX=0.5;exitY=0;exitDx=0;exitDy=0;" edge="1" parent="1" source="1wI0fY2_XgUoo5-ItiQv-15" target="1wI0fY2_XgUoo5-ItiQv-7">
          <mxGeometry width="50" height="50" relative="1" as="geometry">
            <mxPoint x="210" y="440" as="sourcePoint" />
            <mxPoint x="260" y="390" as="targetPoint" />
          </mxGeometry>
        </mxCell>
        <mxCell id="1wI0fY2_XgUoo5-ItiQv-18" value="" style="endArrow=classic;html=1;rounded=0;entryX=0.5;entryY=1;entryDx=0;entryDy=0;exitX=0.5;exitY=0;exitDx=0;exitDy=0;" edge="1" parent="1" source="1wI0fY2_XgUoo5-ItiQv-16" target="1wI0fY2_XgUoo5-ItiQv-7">
          <mxGeometry width="50" height="50" relative="1" as="geometry">
            <mxPoint x="650" y="510" as="sourcePoint" />
            <mxPoint x="700" y="460" as="targetPoint" />
          </mxGeometry>
        </mxCell>
        <mxCell id="1wI0fY2_XgUoo5-ItiQv-23" value="" style="endArrow=none;html=1;rounded=0;entryX=1;entryY=0.5;entryDx=0;entryDy=0;exitX=0;exitY=0.5;exitDx=0;exitDy=0;" edge="1" parent="1" source="1wI0fY2_XgUoo5-ItiQv-15" target="1wI0fY2_XgUoo5-ItiQv-15">
          <mxGeometry width="50" height="50" relative="1" as="geometry">
            <mxPoint x="100" y="590" as="sourcePoint" />
            <mxPoint x="150" y="540" as="targetPoint" />
          </mxGeometry>
        </mxCell>
        <mxCell id="1wI0fY2_XgUoo5-ItiQv-24" value="" style="endArrow=none;html=1;rounded=0;entryX=1;entryY=0.5;entryDx=0;entryDy=0;" edge="1" parent="1" target="1wI0fY2_XgUoo5-ItiQv-16">
          <mxGeometry width="50" height="50" relative="1" as="geometry">
            <mxPoint x="500" y="580" as="sourcePoint" />
            <mxPoint x="310" y="590" as="targetPoint" />
          </mxGeometry>
        </mxCell>
        <mxCell id="1wI0fY2_XgUoo5-ItiQv-29" value="" style="endArrow=none;html=1;rounded=0;entryX=1;entryY=0.5;entryDx=0;entryDy=0;exitX=0;exitY=0.5;exitDx=0;exitDy=0;" edge="1" parent="1" source="1wI0fY2_XgUoo5-ItiQv-7" target="1wI0fY2_XgUoo5-ItiQv-7">
          <mxGeometry width="50" height="50" relative="1" as="geometry">
            <mxPoint x="210" y="320" as="sourcePoint" />
            <mxPoint x="260" y="270" as="targetPoint" />
          </mxGeometry>
        </mxCell>
      </root>
    </mxGraphModel>
  </diagram>
</mxfile>
